{"title":"Michael Jackson - Slave To The Rhythm [Music Video] 720p [Sbyky]","uid":10914142,"size":60935661,"categoryP":"video","categoryS":"music_videos","magnet":"?xt=urn:btih:bef9e7576c74a4acdd7490bd46a359a90edfb190&amp;dn=Michael+Jackson+-+Slave+To+The+Rhythm+%5BMusic+Video%5D+720p+%5BSbyky%5D&amp;tr=udp%3A%2F%2Ftracker.openbittorrent.com%3A80&amp;tr=udp%3A%2F%2Fopen.demonii.com%3A1337&amp;tr=udp%3A%2F%2Ftracker.coppersurfer.tk%3A6969&amp;tr=udp%3A%2F%2Fexodus.desync.com%3A6969","seeders":1,"leechers":0,"uploader":"Sbyky","files":1,"time":1409288742,"description":"\n\nGeneral\nComplete name                            : Michael Jackson - Slave To The Rhythm [Music Video] 720p [Sbyky].mp4\nFormat                                   : MPEG-4\nFormat profile                           : Base Media\nCodec ID                                 : isom\nFile size                                : 58.1 MiB\nDuration                                 : 3mn 57s\nOverall bit rate mode                    : Variable\nOverall bit rate                         : 2 052 Kbps\nEncoded date                             : UTC 2014-05-26 11:40:06\nTagged date                              : UTC 2014-05-26 11:40:06\n\nVideo\nID                                       : 1\nFormat                                   : AVC\nFormat/Info                              : Advanced Video Codec\nFormat profile                           : &lt;a class=&quot;__cf_email__&quot; href=&quot;/cdn-cgi/l/email-protection&quot; data-cfemail=&quot;e7aa868e89a7abd4c9d6&quot;&gt;[email&amp;#160;protected]&lt;/a&gt;&lt;script cf-hash='f9e31' type=&quot;text/javascript&quot;&gt;\n/* &lt;![CDATA[ */!function(){try{var t=&quot;currentScript&quot;in document?document.currentScript:function(){for(var t=document.getElementsByTagName(&quot;script&quot;),e=t.length;e--;)if(t[e].getAttribute(&quot;cf-hash&quot;))return t[e]}();if(t&amp;&amp;t.previousSibling){var e,r,n,i,c=t.previousSibling,a=c.getAttribute(&quot;data-cfemail&quot;);if(a){for(e=&quot;&quot;,r=parseInt(a.substr(0,2),16),n=2;a.length-n;n+=2)i=parseInt(a.substr(n,2),16)^r,e+=String.fromCharCode(i);e=document.createTextNode(e),c.parentNode.replaceChild(e,c)}}}catch(u){}}();/* ]]&gt; */&lt;/script&gt;\nFormat settings, CABAC                   : Yes\nFormat settings, ReFrames                : 3 frames\nCodec ID                                 : avc1\nCodec ID/Info                            : Advanced Video Coding\nDuration                                 : 3mn 57s\nDuration_LastFrame                       : -33ms\nBit rate                                 : 1 924 Kbps\nWidth                                    : 1 280 pixels\nHeight                                   : 720 pixels\nDisplay aspect ratio                     : 16:9\nFrame rate mode                          : Constant\nFrame rate                               : 29.970 fps\nColor space                              : YUV\nChroma subsampling                       : 4:2:0\nBit depth                                : 8 bits\nScan type                                : Progressive\nBits/(Pixel*Frame)                       : 0.070\nStream size                              : 54.5 MiB (94%)\nEncoded date                             : UTC 2014-05-26 11:40:06\nTagged date                              : UTC 2014-05-26 11:40:06\n\nAudio\nID                                       : 2\nFormat                                   : AAC\nFormat/Info                              : Advanced Audio Codec\nFormat profile                           : LC\nCodec ID                                 : 40\nDuration                                 : 3mn 57s\nBit rate mode                            : Variable\nBit rate                                 : 126 Kbps\nChannel(s)                               : 2 channels\nChannel positions                        : Front: L R\nSampling rate                            : 44.1 KHz\nCompression mode                         : Lossy\nStream size                              : 3.56 MiB (6%)\nEncoded date                             : UTC 2014-05-26 11:39:16\nTagged date                              : UTC 2014-05-26 11:39:16\n\nShared By Sbyky\n","torrent":{"xt":"urn:btih:bef9e7576c74a4acdd7490bd46a359a90edfb190","amp;dn":"Michael+Jackson+-+Slave+To+The+Rhythm+%5BMusic+Video%5D+720p+%5BSbyky%5D","amp;tr":["udp%3A%2F%2Ftracker.openbittorrent.com%3A80","udp%3A%2F%2Fopen.demonii.com%3A1337","udp%3A%2F%2Ftracker.coppersurfer.tk%3A6969","udp%3A%2F%2Fexodus.desync.com%3A6969"],"infoHash":"bef9e7576c74a4acdd7490bd46a359a90edfb190","infoHashBuffer":{"type":"Buffer","data":[190,249,231,87,108,116,164,172,221,116,144,189,70,163,89,169,14,223,177,144]},"announce":[],"urlList":[]}}